<svg xmlns="http://www.w3.org/2000/svg" viewBox="731 -224 446.043 471.804">
  <defs>
    <style>
      .cls-1 {
        fill: #5f9ea0;
      }

      .cls-2 {
        fill: #fff;
      }

      .cls-3 {
        fill: #866201;
      }

      .cls-4 {
        fill: #f60;
      }

      .cls-5 {
        fill: #eb3400;
      }

      .cls-6 {
        fill: #821d00;
      }

      .cls-7 {
        fill: #d6d6d6;
      }

      .cls-8 {
        fill: #24170c;
      }

      .cls-9 {
        fill: #524337;
      }

      .cls-10 {
        fill: #e0904a;
      }

      .cls-11 {
        fill: #bf6a3f;
      }

      .cls-12 {
        fill: #ffd97d;
      }

      .cls-13 {
        fill: #3b2f25;
      }

      .cls-14 {
        fill: #72c2f7;
      }

      .cls-15 {
        fill: #3c79af;
      }

      .cls-16 {
        fill: #232446;
      }

      .cls-17 {
        fill: #9e2d00;
      }

      .cls-18 {
        fill: #ffa511;
      }

      .cls-19 {
        fill: #eb6b24;
      }
    </style>
  </defs>
  <g id="discussion" transform="translate(718.119 -224)">
    <path id="Path_1" data-name="Path 1" class="cls-1" d="M363.681,15a15,15,0,0,0-22.56-12.953L259.29,49.815A37.5,37.5,0,0,0,240.7,82.2v54.5a17.267,17.267,0,0,0,25.973,14.914l46.132-26.929,15.923,17.61-1.214-26.2,19.8-11.56a33.014,33.014,0,0,0,16.368-28.51V15h0Z"/>
    <g id="Group_1" data-name="Group 1">
      <path id="Path_2" data-name="Path 2" class="cls-2" d="M342.876,32.482,263.225,79.829v6.322l79.651-47.09Z"/>
      <path id="Path_3" data-name="Path 3" class="cls-2" d="M342.876,52.517,263.225,99.863v6.323L342.876,59.1Z"/>
      <path id="Path_4" data-name="Path 4" class="cls-2" d="M344.594,70.924l-79.648,47.344v6.323L344.594,77.5Z"/>
    </g>
    <path id="Path_5" data-name="Path 5" class="cls-3" d="M108.125,15A15,15,0,0,1,130.686,2.045l81.831,47.769A37.5,37.5,0,0,1,231.107,82.2v54.5a17.267,17.267,0,0,1-25.973,14.914L159,124.684l-15.759,17.61,1.05-26.2-19.8-11.559a33.016,33.016,0,0,1-16.368-28.51V15Z"/>
    <g id="Group_2" data-name="Group 2">
      <path id="Path_6" data-name="Path 6" class="cls-2" d="M128.93,32.485l79.649,47.344v6.325L128.93,39.062Z"/>
      <path id="Path_7" data-name="Path 7" class="cls-2" d="M128.93,52.519l79.649,47.345v6.323L128.93,59.1Z"/>
      <path id="Path_8" data-name="Path 8" class="cls-2" d="M127.211,70.925l79.65,47.344v6.324L127.211,77.5Z"/>
    </g>
    <path id="Path_9" data-name="Path 9" class="cls-4" d="M246.622,308.216v81.718L387.829,471.8l71.1-41.016V349.076L317.388,267.361Z"/>
    <path id="Path_10" data-name="Path 10" class="cls-5" d="M246.622,308.216l141.207,81.718V471.8l-141.207-81.87Z"/>
    <path id="Path_11" data-name="Path 11" class="cls-6" d="M458.924,349.076l-71.1,40.858V471.8l71.1-41.016Z"/>
    <path id="Path_12" data-name="Path 12" class="cls-2" d="M282.006,328.648l70.768-40.86,70.766,40.858-70.766,40.86Z"/>
    <path id="Path_13" data-name="Path 13" class="cls-7" d="M282.006,328.648l35.382,102.316,35.386-61.458Z"/>
    <path id="Path_14" data-name="Path 14" class="cls-8" d="M357.327,141.951V263.058l-64.35,37.153V179.1Z"/>
    <path id="Path_15" data-name="Path 15" class="cls-9" d="M292.977,300.211l-5.441-3.153v-86l5.441-3.255Z"/>
    <path id="Path_16" data-name="Path 16" class="cls-10" d="M325.153,277.258v49.51l30.038,17.341V295.018Z"/>
    <path id="Path_17" data-name="Path 17" class="cls-11" d="M355.191,295.018l30.038-17.76v49.51l-30.038,17.341Z"/>
    <path id="Path_18" data-name="Path 18" class="cls-12" d="M276.98,191.97v90.31l78.211,45.155L433.4,282.28V190.512l-78.213-43.7Z"/>
    <path id="Path_19" data-name="Path 19" class="cls-10" d="M355.191,237.123v90.312L433.4,282.28V190.512Z"/>
    <path id="Path_20" data-name="Path 20" class="cls-8" d="M269.11,187.426V211.84l86.081,50.581,27.516-16.468v83.813l56.145-32.417V187.426l-83.661-49.784Z"/>
    <g id="Group_3" data-name="Group 3">
      <path id="Path_21" data-name="Path 21" class="cls-9" d="M269.11,187.426l86.081,49.7,83.661-49.7-83.661-49.784Z"/>
      <path id="Path_22" data-name="Path 22" class="cls-9" d="M382.707,329.766l-5.438-3.153V249.206l5.438-3.253Z"/>
    </g>
    <path id="Path_23" data-name="Path 23" class="cls-13" d="M355.191,237.123v25.3L269.11,211.84V187.426Z"/>
    <path id="Path_24" data-name="Path 24" class="cls-14" d="M225.184,308.216v81.718L83.977,471.8l-71.1-41.016V349.076l141.536-81.715Z"/>
    <path id="Path_25" data-name="Path 25" class="cls-15" d="M225.184,308.216,83.977,389.934V471.8l141.207-81.87Z"/>
    <path id="Path_26" data-name="Path 26" class="cls-16" d="M12.881,349.076l71.1,40.858V471.8l-71.1-41.016Z"/>
    <path id="Path_27" data-name="Path 27" class="cls-2" d="M189.8,328.648l-70.768-40.86L48.264,328.646l70.768,40.86Z"/>
    <path id="Path_28" data-name="Path 28" class="cls-10" d="M146.652,277.258v49.51l-30.038,17.341V295.018Z"/>
    <path id="Path_29" data-name="Path 29" class="cls-11" d="M116.614,295.018l-30.037-17.76v49.51l30.037,17.341Z"/>
    <path id="Path_30" data-name="Path 30" class="cls-12" d="M194.826,191.97v90.31l-78.212,45.155L38.4,282.28V190.654l78.213-43.839Z"/>
    <path id="Path_31" data-name="Path 31" class="cls-10" d="M38.4,190.654V282.28l78.213,45.155V237.123Z"/>
    <path id="Path_32" data-name="Path 32" class="cls-17" d="M116.614,137.642,32.952,187.426v91.708L89.1,311.55v-65.6l27.516,16.469c24.981-19.633,31.879-43.7,31.882-43.7,29.631,15.2,54.2,0,54.2,0V187.425Z"/>
    <path id="Path_33" data-name="Path 33" class="cls-18" d="M202.7,187.426l-86.081,49.7-83.662-49.7,83.662-49.784Z"/>
    <path id="Path_34" data-name="Path 34" class="cls-7" d="M189.8,328.648,154.417,430.964l-35.385-61.458Z"/>
    <g id="Group_4" data-name="Group 4">
      <path id="Path_35" data-name="Path 35" class="cls-19" d="M148.5,218.718l-31.882,18.406v25.3C141.6,242.788,148.493,218.723,148.5,218.718Z"/>
      <path id="Path_36" data-name="Path 36" class="cls-19" d="M202.7,218.718V187.426l-54.2,31.292C178.127,233.919,202.7,218.718,202.7,218.718Z"/>
    </g>
  </g>
</svg>
