<?xml version="1.0" encoding="iso-8859-1"?>
<!-- Generator: Adobe Illustrator 19.0.0, SVG Export Plug-In . SVG Version: 6.00 Build 0)  -->
<svg version="1.1" id="Capa_1" xmlns="http://www.w3.org/2000/svg" xmlns:xlink="http://www.w3.org/1999/xlink" x="0px" y="0px"
	 viewBox="0 0 463.75 463.75" style="enable-background:new 0 0 463.75 463.75;" xml:space="preserve">
<polygon style="fill:#D6D6D6;" points="323.187,314.18 374.867,284.022 385.157,289.911 332.92,319.942 "/>
<polygon style="fill:#72EEF7;" points="385.157,278.725 332.92,309.222 322.366,303.11 375.095,272.872 "/>
<polygon style="fill:#3CA5AF;" points="385.157,278.725 385.157,289.911 332.92,319.942 332.92,309.222 "/>
<polygon style="fill:#D6D6D6;" points="387.87,352.461 268.888,282.047 256.861,289.04 376.773,358.914 "/>
<polygon style="fill:#72EEF7;" points="256.861,279.052 376.773,348.059 387.87,341.041 268.692,272.029 "/>
<polygon style="fill:#3CA5AF;" points="256.861,279.052 256.861,289.04 376.773,358.914 376.773,348.059 "/>
<polygon style="fill:#304E75;" points="387.87,341.041 387.87,352.461 376.773,358.914 376.773,348.059 "/>
<polygon style="fill:#D6D6D6;" points="256.861,350.68 310.395,320.235 321.055,326.445 267.956,357.085 "/>
<polygon style="fill:#72EEF7;" points="321.139,316.06 267.956,346.878 256.861,339.861 309.588,309.344 "/>
<polygon style="fill:#3CA5AF;" points="321.139,316.06 321.055,326.445 267.956,357.085 267.956,346.878 "/>
<polygon style="fill:#304E75;" points="256.861,339.861 256.861,350.68 267.956,357.085 267.956,346.878 "/>
<polygon style="fill:#3CA5AF;" points="309.357,224.678 309.357,309.262 321.139,316.043 321.139,231.568 "/>
<polygon style="fill:#72EEF7;" points="309.357,224.678 321.139,217.877 332.92,224.766 321.139,231.568 "/>
<polygon style="fill:#304E75;" points="332.92,224.766 321.139,231.568 321.139,316.043 332.92,309.222 "/>
<polygon style="fill:#EB3400;" points="343.4,13.472 309.247,148.036 405.419,203.577 438.968,69.394 "/>
<path style="fill:#821D00;" d="M438.968,69.394l-33.549,134.183l-92.871,53.634v28.285l113.555-65.513L463.75,58.629
	C463.75,58.629,450.072,54.201,438.968,69.394z"/>
<g>
	<path style="fill:#FF672B;" d="M463.75,58.629L364.24,1.442c-15.441,0-20.84,12.03-20.84,12.03l95.567,55.921
		C450.072,54.201,463.75,58.629,463.75,58.629z"/>
	<polygon style="fill:#FF672B;" points="405.419,203.577 312.548,257.211 214.573,202.042 309.247,148.036 	"/>
</g>
<polygon style="fill:#EB3400;" points="214.573,202.042 214.573,228.788 312.548,285.496 312.548,257.211 "/>
<polygon style="fill:#9FBBD4;" points="238.192,269.163 238.192,451.909 254.367,462.307 254.367,278.936 "/>
<polygon style="fill:#627687;" points="271.135,269.163 254.367,278.936 254.367,462.307 271.135,452.63 "/>
<polygon style="fill:#9FBBD4;" points="384.711,184.874 384.711,367.62 400.886,378.016 400.886,194.646 "/>
<g>
	<polygon style="fill:#627687;" points="417.651,184.874 400.886,194.646 400.886,378.016 417.651,368.339 	"/>
	<polygon style="fill:#627687;" points="117.684,187.581 117.688,383.392 202.476,334.441 202.476,138.627 	"/>
</g>
<polygon style="fill:#9FBBD4;" points="11.596,134.157 11.596,322.143 117.684,383.392 117.684,199.038 "/>
<polygon style="fill:#E53C00;" points="423.949,168.59 423.949,186.687 254.372,285.564 0,136.217 0,119.635 254.372,266.494 "/>
<polygon style="fill:#304E75;" points="254.372,285.564 254.372,266.494 423.949,168.59 423.949,186.687 "/>
<polygon style="fill:#FFA511;" points="0,119.635 169.578,21.73 423.949,168.59 254.367,266.494 "/>
<g>
	<polygon style="fill:#FFFFFF;" points="21.56,164.004 21.56,228.355 107.719,278.162 107.719,213.813 	"/>
	<polygon style="fill:#FFFFFF;" points="21.56,248.442 21.56,312.794 107.719,362.602 107.719,298.248 	"/>
</g>
<path style="fill:#4F5357;" d="M69.838,202.047c0,3.335-2.328,4.697-5.2,3.039c-2.87-1.656-5.198-5.705-5.198-9.04
	c0-3.336,2.329-4.699,5.198-3.04C67.51,194.661,69.838,198.711,69.838,202.047z"/>
<path style="fill:#424D57;" d="M69.838,288.564c0,3.336-2.328,4.698-5.2,3.04c-2.87-1.656-5.198-5.704-5.198-9.04
	c0-3.334,2.329-4.697,5.198-3.04C67.51,281.181,69.838,285.23,69.838,288.564z"/>
<polygon style="fill:#627687;" points="114.644,162.568 171.157,195.195 204.392,176.01 147.535,143.469 "/>
<polygon style="fill:#2E373D;" points="114.644,162.568 114.644,169.391 171.157,202.738 171.157,195.195 "/>
<polygon style="fill:#424D57;" points="171.157,202.738 204.392,182.658 204.392,176.01 171.157,195.195 "/>
<polygon style="fill:#2E373D;" points="98.323,13.19 98.323,123.256 226.454,197.236 226.454,87.165 "/>
<polygon style="fill:#627687;" points="226.454,87.165 236.163,81.448 108.859,7.977 98.323,13.19 "/>
<polygon style="fill:#424D57;" points="226.454,197.236 236.163,190.831 236.163,81.448 226.454,87.165 "/>
<polygon style="fill:#2E373D;" points="138.154,137.99 138.117,168.53 155.836,178.986 155.836,148.322 "/>
<polygon style="fill:#424D57;" points="155.836,178.986 163.197,174.639 163.197,144.038 155.836,148.303 "/>
<polygon style="fill:#627687;" points="163.197,144.038 144.915,134.045 138.117,137.967 155.836,148.322 "/>
<polygon style="fill:#3CA5AF;" points="254.539,183.413 320.868,145.118 371.865,173.514 304.628,212.333 "/>
<polygon style="fill:#FFFFFF;" points="254.539,177.98 320.868,139.687 371.865,168.079 304.628,206.9 "/>
<g>
</g>
<g>
</g>
<g>
</g>
<g>
</g>
<g>
</g>
<g>
</g>
<g>
</g>
<g>
</g>
<g>
</g>
<g>
</g>
<g>
</g>
<g>
</g>
<g>
</g>
<g>
</g>
<g>
</g>
</svg>
