<?xml version="1.0" encoding="iso-8859-1"?>
<!-- Generator: Adobe Illustrator 19.0.0, SVG Export Plug-In . SVG Version: 6.00 Build 0)  -->
<svg version="1.1" id="Capa_1" xmlns="http://www.w3.org/2000/svg" xmlns:xlink="http://www.w3.org/1999/xlink" x="0px" y="0px"
	 viewBox="0 0 488 488" style="enable-background:new 0 0 488 488;" xml:space="preserve">
<polygon style="fill:#FF5500;" points="236.063,25.429 279.563,0 323.07,25.116 279.563,50.546 "/>
<polygon style="fill:#EB3400;" points="236.063,25.429 236.063,75.662 279.563,100.778 279.563,50.546 "/>
<polygon style="fill:#821D00;" points="279.563,50.546 323.07,25.116 323.07,75.662 279.563,100.778 "/>
<polygon style="fill:#2DB357;" points="18.715,124.138 70.141,94.079 121.567,123.77 70.141,153.83 "/>
<polygon style="fill:#238A43;" points="18.715,124.138 18.715,183.52 70.141,213.212 70.141,153.83 "/>
<polygon style="fill:#16572A;" points="70.141,153.83 121.567,123.77 121.567,183.52 70.141,213.212 "/>
<path style="fill:#FFDC13;" d="M397.374,126.563c-1.185,0-2.388-0.306-3.488-0.949L303.67,72.746
	c-3.296-1.931-4.399-6.167-2.47-9.46c1.928-3.294,6.161-4.404,9.461-2.47l90.218,52.869c3.294,1.93,4.399,6.165,2.467,9.459
	C402.061,125.34,399.749,126.563,397.374,126.563z"/>
<polygon style="fill:#72EEF7;" points="370.067,108.273 424.622,76.386 479.177,107.883 424.622,139.773 "/>
<polygon style="fill:#2FBBC5;" points="370.067,108.273 370.067,171.27 424.622,202.766 424.622,139.773 "/>
<polygon style="fill:#304E75;" points="424.622,139.773 479.177,107.883 479.177,171.27 424.622,202.766 "/>
<g>
	<path style="fill:#FFDC13;" d="M291.872,223.62c-2.383,0-4.702-1.232-5.984-3.441c-1.917-3.302-0.796-7.533,2.506-9.45
		l99.202-57.556c3.299-1.919,7.532-0.796,9.449,2.505s0.795,7.533-2.507,9.449l-99.201,57.558
		C294.247,223.32,293.049,223.62,291.872,223.62z"/>
	<path style="fill:#FFDC13;" d="M220.257,247.522c-1.167,0-2.349-0.295-3.435-0.919L94.428,176.455
		c-3.31-1.901-4.455-6.125-2.554-9.437c1.899-3.311,6.123-4.456,9.438-2.555l122.393,70.149c3.312,1.901,4.456,6.125,2.554,9.437
		C224.983,246.277,222.653,247.522,220.257,247.522z"/>
	<polygon style="fill:#FFDC13;" points="167.042,195.683 245.648,149.739 324.252,195.12 245.648,241.069 	"/>
</g>
<polygon style="fill:#FFA511;" points="167.042,195.683 167.042,286.451 245.648,331.83 245.648,241.069 "/>
<polygon style="fill:#D74F00;" points="245.648,241.069 324.252,195.12 324.252,286.451 245.648,331.83 "/>
<path style="fill:#FFDC13;" d="M396.213,332.965c-1.15,0-2.314-0.29-3.386-0.893l-107.208-61.188
	c-3.326-1.875-4.505-6.09-2.631-9.418c1.875-3.325,6.093-4.502,9.416-2.628l107.208,61.188c3.325,1.874,4.505,6.09,2.63,9.415
	C400.974,331.698,398.627,332.965,396.213,332.965z"/>
<polygon style="fill:#2DB357;" points="358.949,310.026 411.605,279.25 464.259,309.649 411.605,340.428 "/>
<polygon style="fill:#238A43;" points="358.949,310.026 358.949,370.826 411.605,401.223 411.605,340.428 "/>
<polygon style="fill:#045D32;" points="411.605,340.428 464.259,309.649 464.259,370.826 411.605,401.223 "/>
<path style="fill:#FFDC13;" d="M90.004,338.812c-2.407,0-4.745-1.259-6.017-3.5c-1.888-3.319-0.725-7.54,2.594-9.426l115.96-65.895
	c3.32-1.885,7.54-0.724,9.424,2.597c1.888,3.317,0.726,7.538-2.593,9.423L93.414,337.906
	C92.335,338.519,91.162,338.812,90.004,338.812z"/>
<polygon style="fill:#72EEF7;" points="8.823,324.792 63.377,292.901 117.934,324.399 63.377,356.29 "/>
<polygon style="fill:#2FBBC5;" points="8.823,324.792 8.823,387.787 63.377,419.283 63.377,356.29 "/>
<polygon style="fill:#304E75;" points="63.377,356.29 117.934,324.399 117.934,387.787 63.377,419.283 "/>
<path style="fill:#FFDC13;" d="M195.355,440.03c-1.191,0-2.398-0.308-3.501-0.956L90.73,379.549
	c-3.29-1.938-4.388-6.174-2.453-9.465c1.939-3.291,6.171-4.39,9.467-2.451l101.124,59.527c3.29,1.936,4.388,6.175,2.452,9.463
	C200.03,438.814,197.724,440.03,195.355,440.03z"/>
<polygon style="fill:#FF5500;" points="147.979,405.931 195.362,378.235 242.741,405.589 195.362,433.287 "/>
<polygon style="fill:#EB3400;" points="147.979,405.931 147.979,460.646 195.362,488 195.362,433.287 "/>
<polygon style="fill:#821D00;" points="195.362,433.287 242.741,405.589 242.741,460.646 195.362,488 "/>
<g>
</g>
<g>
</g>
<g>
</g>
<g>
</g>
<g>
</g>
<g>
</g>
<g>
</g>
<g>
</g>
<g>
</g>
<g>
</g>
<g>
</g>
<g>
</g>
<g>
</g>
<g>
</g>
<g>
</g>
</svg>
