<?xml version="1.0" encoding="iso-8859-1"?>
<!-- Generator: Adobe Illustrator 19.0.0, SVG Export Plug-In . SVG Version: 6.00 Build 0)  -->
<svg version="1.1" id="Capa_1" xmlns="http://www.w3.org/2000/svg" xmlns:xlink="http://www.w3.org/1999/xlink" x="0px" y="0px"
	 viewBox="0 0 467.932 467.932" style="enable-background:new 0 0 467.932 467.932;" xml:space="preserve">
<polygon style="fill:#2DB357;" points="0,369.325 155.977,459.38 467.932,279.272 467.931,98.605 311.953,8.552 0,189.219 "/>
<polygon style="fill:#0E834C;" points="0,189.219 155.977,279.272 467.931,98.605 467.932,279.272 155.977,459.38 0,369.325 "/>
<polygon style="fill:#1A4541;" points="155.977,459.38 155.977,279.272 467.931,98.605 467.932,279.272 "/>
<g>
	<path style="fill:#FFFFFF;" d="M311.953,29.17L38.994,185.864l118.412,67.562L430.365,96.735L311.953,29.17z M157.385,238.144
		l-91.689-52.316L311.975,44.453l91.688,52.316L157.385,238.144z"/>
	<ellipse style="fill:#FFFFFF;" cx="238.466" cy="137.506" rx="51.16" ry="29.05"/>
</g>
<g>
	<ellipse style="fill:#5EE1EB;" cx="317.636" cy="94.486" rx="22.11" ry="12.553"/>
	<ellipse style="fill:#5EE1EB;" cx="155.976" cy="186.766" rx="22.11" ry="12.555"/>
</g>
<g>
	<polygon style="fill:#2DB357;" points="0,212.366 0,216.77 155.966,309.136 155.977,304.736 	"/>
	<polygon style="fill:#2DB357;" points="0,236.551 0,240.956 155.966,333.321 155.977,328.922 	"/>
	<polygon style="fill:#2DB357;" points="0,260.737 0,265.142 155.966,357.509 155.977,353.109 	"/>
	<polygon style="fill:#2DB357;" points="0,284.923 0,289.328 155.966,381.694 155.977,377.296 	"/>
	<polygon style="fill:#2DB357;" points="0,309.11 0,313.515 155.966,405.881 155.977,401.481 	"/>
	<polygon style="fill:#2DB357;" points="0,333.296 0,337.701 155.966,430.066 155.977,425.667 	"/>
</g>
<g>
	<polygon style="fill:#0E834C;" points="467.931,123.763 155.987,304.743 155.977,309.131 467.931,128.142 	"/>
	<polygon style="fill:#0E834C;" points="467.931,147.948 155.987,328.929 155.977,333.316 467.931,152.327 	"/>
	<polygon style="fill:#0E834C;" points="467.931,172.134 155.987,353.116 155.977,357.504 467.931,176.513 	"/>
	<polygon style="fill:#0E834C;" points="467.932,196.319 155.987,377.302 155.977,381.689 467.932,200.699 	"/>
	<polygon style="fill:#0E834C;" points="155.987,401.488 155.977,405.875 467.932,224.887 467.932,220.505 	"/>
	<polygon style="fill:#0E834C;" points="155.987,425.674 155.977,430.06 467.932,249.072 467.932,244.69 	"/>
</g>
<g>
</g>
<g>
</g>
<g>
</g>
<g>
</g>
<g>
</g>
<g>
</g>
<g>
</g>
<g>
</g>
<g>
</g>
<g>
</g>
<g>
</g>
<g>
</g>
<g>
</g>
<g>
</g>
<g>
</g>
</svg>
