<svg xmlns="http://www.w3.org/2000/svg" viewBox="256 60 426.604 356.81">
  <defs>
    <style>
      .cls-1 {
        fill: #e8aa02;
      }

      .cls-2 {
        fill: #866201;
      }

      .cls-3 {
        fill: #fff;
      }

      .cls-4 {
        fill: #e0e0e0;
      }

      .cls-5 {
        fill: #5457a8;
      }

      .cls-6 {
        fill: #232446;
      }

      .cls-7 {
        fill: #4e509c;
      }

      .cls-8 {
        fill: #ffa511;
      }

      .cls-9 {
        fill: #272b40;
      }

      .cls-10 {
        fill: #d74f00;
      }
    </style>
  </defs>
  <g id="target" transform="translate(256 25.103)">
    <path id="Path_1" data-name="Path 1" class="cls-1" d="M390.084,150.258c-23.366-41.187-55.994-77.2-92.121-97.973-38.142-21.928-72.4-22.405-95.96-5.43L172.274,63.422C145.8,75.474,129.1,105.788,129.1,150.337c0,41.385,14.406,87.19,37.682,127.764,23.188,40.42,55.177,75.646,90.508,96.129,38.851,22.519,73.663,22.528,97.171,4.3,15.682-9,32.921-18.907,34.971-20.125l.142-.08c22.9-13.715,37.032-42.493,37.032-83.218C426.6,234.7,412.669,190.065,390.084,150.258Z"/>
    <path id="Path_2" data-name="Path 2" class="cls-2" d="M257.287,374.23c38.851,22.519,73.663,22.528,97.171,4.3,15.682-9,32.921-18.907,34.971-20.125l.142-.08c22.9-13.715,37.032-42.493,37.032-83.218,0-40.41-13.934-85.045-36.519-124.853C363.467,165.494,239.04,236.73,166.779,278.1,189.967,318.521,221.956,353.748,257.287,374.23Z"/>
    <path id="Path_3" data-name="Path 3" class="cls-3" d="M349.182,173.673c-23.292-41.454-55.844-77.713-91.895-98.61C186.492,34.024,129.1,67.725,129.1,150.338c0,41.385,14.406,87.189,37.681,127.763,23.188,40.42,55.178,75.647,90.509,96.13,70.8,41.037,128.191,7.338,128.191-75.277C385.479,258.407,371.632,213.629,349.182,173.673Z"/>
    <path id="Path_4" data-name="Path 4" class="cls-4" d="M257.287,374.23c70.8,41.037,128.191,7.338,128.191-75.277,0-40.546-13.847-85.324-36.3-125.28-52.124,29.841-132.38,75.785-182.4,104.428C189.967,318.521,221.956,353.748,257.287,374.23Z"/>
    <path id="Path_5" data-name="Path 5" class="cls-5" d="M323.186,188.556c-19.137-33.218-45.513-62.171-74.1-78.591-54.16-31.1-96.188-5.366-95.8,56.392.2,32.274,11.968,68.984,30.878,101.794,17.281,29.986,40.528,56.715,66.417,73.8,56.479,37.265,103.67,14.683,103.23-51.859C353.586,257.271,341.817,220.893,323.186,188.556Z"/>
    <path id="Path_6" data-name="Path 6" class="cls-6" d="M250.574,341.946c56.479,37.265,103.67,14.683,103.23-51.859-.219-32.816-11.988-69.194-30.619-101.531-43.754,25.049-97.855,56.022-139.028,79.6C201.439,298.137,224.686,324.865,250.574,341.946Z"/>
    <path id="Path_7" data-name="Path 7" class="cls-3" d="M300,201.827c-13.687-22.749-32.022-42.44-51.831-53.816-39.219-22.525-69.65-3.889-69.371,40.831.139,22.352,7.929,47.645,20.585,70.591,12.673,22.974,30.224,43.6,49.865,56.555,40.9,26.982,75.067,10.631,74.749-37.553C323.835,253.621,314.545,226,300,201.827Z"/>
    <path id="Path_8" data-name="Path 8" class="cls-4" d="M300,201.827,199.385,259.432c12.673,22.974,30.224,43.6,49.865,56.555,40.9,26.982,75.067,10.631,74.749-37.553C323.835,253.621,314.545,226,300,201.827Z"/>
    <path id="Path_9" data-name="Path 9" class="cls-7" d="M270.874,218.5c-7.272-11.624-16.788-21.622-27.028-27.5-21.157-12.151-37.575-2.1-37.425,22.029.071,11.548,3.936,24.55,10.26,36.5,6.891,13.024,16.7,24.8,27.747,32.09,22.064,14.556,40.5,5.735,40.327-20.259C284.663,247.45,279.257,231.9,270.874,218.5Z"/>
    <path id="Path_10" data-name="Path 10" class="cls-6" d="M244.428,281.621c22.064,14.556,40.5,5.735,40.327-20.259-.092-13.912-5.5-29.466-13.881-42.859-18.252,10.45-36.736,21.032-54.193,31.028C223.572,262.556,233.385,274.335,244.428,281.621Z"/>
    <path id="Path_11" data-name="Path 11" class="cls-8" d="M48.334,340.46,0,339.33l62.234-35.513,40.672,5.113Z"/>
    <path id="Path_12" data-name="Path 12" class="cls-9" d="M246.959,236.977a9.523,9.523,0,0,0-4.294-7.467,2.9,2.9,0,0,0-3.15-.2C1.95,365.953,31.791,348.79,29.228,350.263c-3.569,2.306-3.943,5.4-2.145,8.161,2.659,4.078,8.161,2.146,8.161,2.146,21.6-12.4,189.147-108.574,210.594-120.883l-.008-.015A3.125,3.125,0,0,0,246.959,236.977Z"/>
    <path id="Path_13" data-name="Path 13" class="cls-10" d="M53.751,346.136l56.529-32.363-5.916,33.934-58.2,33.932Z"/>
  </g>
</svg>
